<?xml version="1.0" encoding="utf-8"?>
<svg version="1.1" xmlns="http://www.w3.org/2000/svg" xmlns:xlink="http://www.w3.org/1999/xlink" x="0px" y="0px"
	 viewBox="0 0 136.5 57.8" style="enable-background:new 0 0 266.5 57.8;" xml:space="preserve">
<style type="text/css">
	.st0{fill:#FFFFFF;}
</style>
<g>
	
	<path class="st0" d="M33.9,33.9c-2.8,2.8-2.8,7.2,0,10c2.8,2.8,7.2,2.8,10,0c2.8-2.8,2.8-7.2,0-10C41.1,31.2,36.7,31.2,33.9,33.9z"
		/>
	<path class="st0" d="M23.9,23.9c2.8-2.8,2.8-7.2,0-10c-2.8-2.8-7.2-2.8-10,0c-2.8,2.8-2.8,7.2,0,10C16.7,26.7,21.2,26.7,23.9,23.9z
		"/>
	<circle class="st0" cx="28.9" cy="9" r="7.1"/>
	<path class="st0" d="M23.9,23.9c-2.8,2.8-2.8,7.2,0,10c2.8,2.8,7.2,2.8,10,0c2.8-2.8,2.8-7.2,0-10C31.2,21.2,26.7,21.2,23.9,23.9z"
		/>
	<path class="st0" d="M33.9,23.9c2.8,2.8,7.2,2.8,10,0c2.8-2.8,2.8-7.2,0-10c-2.8-2.8-7.2-2.8-10,0C31.2,16.7,31.2,21.2,33.9,23.9z"
		/>
	<path class="st0" d="M13.9,23.9c-2.8-2.8-7.2-2.8-10,0c-2.8,2.8-2.8,7.2,0,10c2.8,2.8,7.2,2.8,10,0C16.7,31.2,16.7,26.7,13.9,23.9z
		"/>
	<path class="st0" d="M53.9,14c-2.7,2.8-2.7,7.2,0,10c1.1,1.1,2.5,1.8,4,2C57.4,21.6,56,17.5,53.9,14z"/>
	<path class="st0" d="M23.9,43.9c-2.8,2.8-2.8,7.2,0,10c2.8,2.8,7.2,2.8,10,0c2.8-2.8,2.8-7.2,0-10C31.2,41.1,26.7,41.1,23.9,43.9z"
		/>
	<path class="st0" d="M43.9,23.9c-2.8,2.8-2.8,7.2,0,10c2.8,2.8,7.2,2.8,10,0c2.8-2.8,2.8-7.2,0-10C51.1,21.2,46.7,21.2,43.9,23.9z"
		/>
	<path class="st0" d="M53.9,14c-2.5-4.1-5.9-7.5-10-10c-2.7,2.8-2.7,7.2,0,10C46.7,16.7,51.1,16.7,53.9,14z"/>
	<path class="st0" d="M23.9,33.9c-2.8-2.8-7.2-2.8-10,0c-2.8,2.8-2.8,7.2,0,10c2.8,2.8,7.2,2.8,10,0C26.7,41.1,26.7,36.7,23.9,33.9z
		"/>
	<path class="st0" d="M14,53.9c3.6,2.1,7.6,3.5,11.9,4c-0.2-1.4-0.9-2.8-2-4C21.2,51.1,16.7,51.1,14,53.9z"/>
	<path class="st0" d="M43.9,53.9c-2.8-2.7-7.2-2.7-10,0c-1.1,1.1-1.8,2.5-2,4C36.3,57.4,40.3,56,43.9,53.9z"/>
	<path class="st0" d="M43.9,4c-3.6-2.1-7.6-3.5-11.9-4c0.2,1.4,0.9,2.8,2,4C36.7,6.7,41.1,6.7,43.9,4z"/>
	<path class="st0" d="M53.9,43.9c2.1-3.6,3.5-7.6,4-11.9c-1.4,0.2-2.8,0.9-4,2C51.1,36.7,51.1,41.1,53.9,43.9z"/>
	<path class="st0" d="M43.9,53.9c4.1-2.5,7.5-5.9,10-10c-2.8-2.7-7.2-2.7-10,0C41.2,46.7,41.1,51.1,43.9,53.9z"/>
	<path class="st0" d="M4,43.9c2.5,4.1,5.9,7.5,10,10c2.7-2.8,2.7-7.2,0-10C11.2,41.2,6.7,41.1,4,43.9z"/>
	<path class="st0" d="M4,43.9c2.7-2.8,2.7-7.2,0-10c-1.1-1.1-2.5-1.8-4-2C0.4,36.3,1.8,40.3,4,43.9z"/>
	<path class="st0" d="M14,4c2.8,2.7,7.2,2.7,10,0c1.1-1.1,1.8-2.5,2-4C21.6,0.4,17.5,1.8,14,4z"/>
	<path class="st0" d="M14,4C9.9,6.4,6.4,9.9,4,14c2.8,2.7,7.2,2.7,10,0C16.7,11.2,16.7,6.7,14,4z"/>
</g>
</svg>
